<?xml version="1.0" encoding="UTF-8"?><svg id="a" xmlns="http://www.w3.org/2000/svg" viewBox="0 0 1920 341"><defs><style>.b{fill:#000;stroke-width:0px;}</style></defs><ellipse class="b" cx="59.3" cy="170.5" rx="59.3" ry="19.5"/><ellipse class="b" cx="82.1" cy="100.3" rx="19.5" ry="59.3" transform="translate(-47.3 107.8) rotate(-54)"/><ellipse class="b" cx="141.8" cy="56.9" rx="19.5" ry="59.3" transform="translate(-10.7 46.6) rotate(-18)"/><ellipse class="b" cx="215.5" cy="56.7" rx="59.3" ry="19.5" transform="translate(95 244.1) rotate(-72)"/><ellipse class="b" cx="275.4" cy="100.3" rx="59.3" ry="19.5" transform="translate(-6.4 181) rotate(-36)"/><ellipse class="b" cx="298.3" cy="170.5" rx="59.3" ry="19.5"/><ellipse class="b" cx="275.5" cy="240.8" rx="19.5" ry="59.3" transform="translate(-81.3 322.2) rotate(-54)"/><ellipse class="b" cx="215.7" cy="284.1" rx="19.5" ry="59.3" transform="translate(-77.2 80.5) rotate(-18)"/><ellipse class="b" cx="141.9" cy="284.3" rx="59.3" ry="19.5" transform="translate(-172.4 331.4) rotate(-72)"/><ellipse class="b" cx="82.1" cy="240.8" rx="59.3" ry="19.5" transform="translate(-125.9 94.2) rotate(-36)"/><path class="b" d="M666.8,68.3l-91.1,199.3h-47.1l-12.3-142-64,142-46.8.3-18.6-199.6h42.8l8,154.8,67.7-154.8h44.6l10.8,153.9,62.8-153.9h43.3Z"/><path class="b" d="M792,123.7c11.8,11.2,17.7,26.1,17.7,44.9s-.5,11.5-1.4,16.3c-1.1,5.6-2.4,10.7-3.8,14.8h-115.6c-.3,1.4-.3,3.3-.3,5.6,0,9.9,2.9,17.7,8.7,23.2,5.8,5.6,13.4,8.4,23,8.4s14.9-1.8,20.7-5.3c5.8-3.5,10.5-8.2,14.2-13.8h43.2c-7,15.2-18,27.7-32.6,37.5-14.8,9.8-31.5,14.7-50.1,14.7s-36.4-5.8-48.6-17.2c-12.2-11.4-18.3-27-18.3-46.6s.6-11.7,1.8-18c2.9-16.3,8.7-30.8,17.6-43.2s19.8-21.8,33-28.6c13.2-6.7,27.5-10,43.2-10s36.2,5.5,48,16.7l-.3.4ZM769.1,168.8c0-9.2-3-16.3-8.9-21.5-5.9-5.1-13.6-7.7-23.1-7.7s-19.1,3.1-27.1,9.5c-8,6.4-13.6,15.1-16.8,26.1h75.4c.4-3,.6-5.3.6-6.5h-.1Z"/><path class="b" d="M911.1,114c9.9-4.8,20.7-7.2,32.3-7.2s22.2,2.5,31.3,7.5,16.1,12.3,21,21.8,7.4,20.7,7.4,33.4-.6,12.1-1.8,18.3c-2.9,16.2-8.5,30.5-17.2,42.9-8.5,12.4-19,22.1-31.1,29s-25,10.3-38.3,10.3-21.8-2.4-30-7c-8.2-4.6-14.2-10.7-18-18.1l-4,22.6h-40.3l37.4-211.3h40.3l-13.4,76.2c6.3-7.7,14.3-13.8,24.2-18.6h.3ZM961.3,177.8c0-11.2-3.3-20-9.7-26.2-6.5-6.3-14.8-9.4-24.9-9.4s-14.4,1.9-21.5,5.5c-7,3.8-13.2,9-18.3,16.2-5.1,7-8.5,15.3-10.3,24.9-.8,4.9-1.1,8.5-1.1,10.8,0,11.3,3.3,20,9.8,26.2,6.5,6.3,14.8,9.4,24.7,9.4s14.7-1.9,21.7-5.8c7-3.8,13.2-9.3,18.3-16.3s8.5-15.4,10.3-25.1c.6-3.8.9-7.3.9-10.3h0Z"/><path class="b" d="M1174.6,68.3l-5.6,31.4h-82.9l-9.2,52.2h63.4l-5.4,30.9h-63.6l-14.8,84.9h-40.3l35.4-199.3h123.1-.1Z"/><path class="b" d="M1731.2,115.1c9.2-5.3,19.1-8,29.8-8l-7.4,41.9h-10.5c-11.8,0-21.2,2.5-28.4,7.7-7.2,5.1-12.3,13.9-15.6,26.2l-14.8,84.5h-40.3l28-158.2h40.3l-4.9,28c6.9-9.5,14.8-16.9,24-22.2h-.1Z"/><path class="b" d="M1332.8,109.5l-28,158.2h-40l3.4-20c-6.2,6.9-13.6,12.2-22.6,16.2-8.9,3.9-18.3,5.9-28.2,5.9-16.3,0-29.4-4.4-38.8-13.3-9.5-8.9-14.3-21.5-14.3-37.8s.5-11.5,1.4-16.3l16.3-92.8h39.9l-15.4,87.1c-.6,3.4-.9,6.8-.9,10,0,9.3,2.5,16.6,7.7,21.6s12.4,7.5,21.7,7.5,20.1-3.4,27.7-10.2c7.7-6.8,12.4-16.4,14.6-29l15.4-87.1h40.2Z"/><path class="b" d="M1399.7,218.8c-.3,1.1-.3,2.6-.3,4.5,0,3.8,1.1,6.5,3.3,8.2s5.9,2.4,11,2.4h18.8l-6,33.6h-25.4c-28.6,0-42.8-11.9-42.8-35.7s.4-9,1.1-13.4l13.4-76.2h-18.8l5.6-32.9h19.1l6.9-39.2h40.3l-6.9,39.2h35.1l-5.8,32.9h-35.4l-13.4,76.6h0Z"/><path class="b" d="M1632.4,109.5l-28,158.2h-39.9l3.4-20c-6.2,6.9-13.6,12.2-22.6,16.2-8.9,3.9-18.3,5.9-28.2,5.9-16.3,0-29.4-4.4-38.8-13.3-9.5-8.9-14.3-21.5-14.3-37.8s.5-11.5,1.4-16.3l16.3-92.8h40l-15.4,87.1c-.6,3.4-.9,6.8-.9,10,0,9.3,2.5,16.6,7.7,21.6,5.1,5,12.4,7.5,21.7,7.5s20.1-3.4,27.7-10.2c7.7-6.8,12.4-16.4,14.6-29l15.4-87.1h39.9Z"/><path class="b" d="M1902.3,123.7c11.8,11.2,17.7,26.1,17.7,44.9s-.5,11.5-1.4,16.3c-1.1,5.6-2.4,10.7-3.8,14.8h-115.6c-.3,1.4-.3,3.3-.3,5.6,0,9.9,2.9,17.7,8.7,23.2,5.8,5.6,13.4,8.4,23,8.4s14.9-1.8,20.7-5.3c5.8-3.5,10.5-8.2,14.2-13.8h43.2c-7,15.2-18,27.7-32.6,37.5-14.8,9.8-31.5,14.7-50.1,14.7s-36.4-5.8-48.6-17.2c-12.2-11.4-18.3-27-18.3-46.6s.6-11.7,1.8-18c2.9-16.3,8.7-30.8,17.6-43.2,8.9-12.4,19.8-21.8,33-28.6,13.2-6.7,27.5-10,43.2-10s36.2,5.5,48,16.7l-.3.4ZM1879.5,168.8c0-9.2-3-16.3-8.9-21.5s-13.6-7.7-23.1-7.7-19.1,3.1-27.1,9.5-13.6,15.1-16.8,26.1h75.4c.4-3,.6-5.3.6-6.5h-.1Z"/></svg>