<?xml version="1.0" encoding="UTF-8"?><svg id="a" xmlns="http://www.w3.org/2000/svg" viewBox="0 0 725.3 119.9"><defs><style>.l{fill:#000;stroke-width:0px;}</style></defs><path class="l" d="M241.9,23.7l-34.8,76.2h-18l-4.7-54.3-24.5,54.3h-17.9c0,.1-7.1-76.2-7.1-76.2h16.4l3.1,59.2,25.9-59.2h17l4.2,58.9,24-58.9h16.5Z"/><path class="l" d="M290.2,44.8c4.5,4.3,6.8,10,6.8,17.2s-.2,4.4-.5,6.2c-.4,2.2-.9,4.1-1.4,5.7h-44.2c0,.5-.1,1.2-.1,2.2,0,3.8,1.1,6.8,3.3,8.9,2.2,2.1,5.1,3.2,8.8,3.2s5.7-.7,7.9-2c2.2-1.3,4-3.1,5.4-5.3h16.5c-2.7,5.8-6.9,10.6-12.5,14.4-5.6,3.8-12,5.6-19.2,5.6s-13.9-2.2-18.6-6.6c-4.7-4.4-7-10.3-7-17.8s.2-4.5.7-6.9c1.1-6.3,3.3-11.8,6.7-16.5,3.4-4.7,7.6-8.4,12.6-10.9,5-2.5,10.5-3.8,16.5-3.8s13.8,2.1,18.3,6.4ZM281.5,62.1c0-3.5-1.1-6.2-3.4-8.2-2.3-2-5.2-2.9-8.8-2.9s-7.3,1.2-10.4,3.7c-3.1,2.4-5.2,5.8-6.4,10h28.8c.1-1.2.2-2,.2-2.5Z"/><path class="l" d="M335.7,41.2c3.8-1.8,7.9-2.7,12.3-2.7s8.5,1,12,2.9c3.5,1.9,6.1,4.7,8,8.4,1.9,3.6,2.8,7.9,2.8,12.8s-.2,4.6-.7,7c-1.1,6.2-3.3,11.7-6.6,16.4-3.3,4.8-7.2,8.5-11.9,11.1-4.7,2.6-9.5,3.9-14.6,3.9s-8.3-.9-11.5-2.7c-3.1-1.8-5.4-4.1-6.9-6.9l-1.5,8.6h-15.4l14.3-80.8h15.4l-5.1,29.2c2.4-2.9,5.5-5.3,9.3-7.1ZM355,65.5c0-4.3-1.2-7.6-3.7-10-2.5-2.4-5.6-3.6-9.5-3.6s-5.5.7-8.2,2.1c-2.7,1.4-5,3.5-7,6.2-2,2.7-3.3,5.9-3.9,9.5-.3,1.9-.4,3.3-.4,4.1,0,4.3,1.3,7.6,3.8,10,2.5,2.4,5.7,3.6,9.4,3.6s5.6-.7,8.3-2.2c2.7-1.5,5-3.5,7-6.2,2-2.7,3.3-5.9,3.9-9.6.2-1.5.3-2.8.3-3.9Z"/><path class="l" d="M438.1,25.5l-2.2,12h-31.7l-3.5,20h24.2l-2.1,11.8h-24.4l-5.7,32.4h-15.4l13.5-76.2h47.1Z"/><path class="l" d="M499.8,40.4l-10.7,60.5h-15.3l1.3-7.6c-2.3,2.6-5.2,4.7-8.6,6.2-3.4,1.5-7,2.2-10.8,2.2-6.3,0-11.2-1.7-14.9-5.1-3.6-3.4-5.5-8.2-5.5-14.5s.2-4.4.5-6.2l6.2-35.5h15.3l-5.9,33.3c-.2,1.3-.3,2.6-.3,3.8,0,3.6,1,6.3,2.9,8.2,2,1.9,4.7,2.9,8.3,2.9s7.7-1.3,10.6-3.9c2.9-2.6,4.8-6.3,5.6-11.1l5.9-33.3h15.3Z"/><path class="l" d="M525.4,82.2c0,.4-.1,1-.1,1.7,0,1.5.4,2.5,1.3,3.1.8.6,2.2.9,4.2.9h7.2l-2.3,12.9h-9.7c-10.9,0-16.4-4.5-16.4-13.6s.1-3.5.4-5.1l5.1-29.2h-7.2l2.2-12.6h7.3l2.6-15h15.4l-2.6,15h13.4l-2.2,12.6h-13.5l-5.1,29.3Z"/><path class="l" d="M614.4,40.4l-10.7,60.5h-15.3l1.3-7.6c-2.3,2.6-5.2,4.7-8.6,6.2-3.4,1.5-7,2.2-10.8,2.2-6.3,0-11.2-1.7-14.9-5.1-3.6-3.4-5.5-8.2-5.5-14.5s.2-4.4.5-6.2l6.2-35.5h15.3l-5.9,33.3c-.2,1.3-.3,2.6-.3,3.8,0,3.6,1,6.3,2.9,8.2,2,1.9,4.7,2.9,8.3,2.9s7.7-1.3,10.6-3.9c2.9-2.6,4.8-6.3,5.6-11.1l5.9-33.3h15.3Z"/><path class="l" d="M652.2,42.6c3.5-2,7.3-3.1,11.4-3.1l-2.8,16.1h-4c-4.5,0-8.1,1-10.9,2.9s-4.7,5.3-6,10l-5.7,32.3h-15.4l10.7-60.5h15.4l-1.9,10.7c2.6-3.6,5.7-6.5,9.2-8.5Z"/><path class="l" d="M718.6,45.8c4.5,4.3,6.8,10,6.8,17.2s-.2,4.4-.5,6.2c-.4,2.2-.9,4.1-1.4,5.7h-44.2c0,.5-.1,1.2-.1,2.2,0,3.8,1.1,6.8,3.3,8.9,2.2,2.1,5.1,3.2,8.8,3.2s5.7-.7,7.9-2c2.2-1.3,4-3.1,5.4-5.3h16.5c-2.7,5.8-6.9,10.6-12.5,14.4-5.6,3.8-12,5.6-19.2,5.6s-13.9-2.2-18.6-6.6c-4.7-4.4-7-10.3-7-17.8s.2-4.5.7-6.9c1.1-6.3,3.3-11.8,6.7-16.5,3.4-4.7,7.6-8.4,12.6-10.9,5-2.5,10.5-3.8,16.5-3.8s13.8,2.1,18.3,6.4ZM709.8,63.1c0-3.5-1.1-6.2-3.4-8.2-2.3-2-5.2-2.9-8.8-2.9s-7.3,1.2-10.4,3.7c-3.1,2.4-5.2,5.8-6.4,10h28.8c.1-1.2.2-2,.2-2.5Z"/><g id="b"><ellipse class="l" cx="21.9" cy="60" rx="21.9" ry="6.3"/></g><g id="c"><ellipse class="l" cx="29.2" cy="37.6" rx="6.3" ry="21.9" transform="translate(-18.4 39.1) rotate(-54)"/></g><g id="d"><ellipse class="l" cx="48.2" cy="23.7" rx="6.3" ry="21.9" transform="translate(-5 16.1) rotate(-18)"/></g><g id="e"><ellipse class="l" cx="71.7" cy="23.7" rx="21.9" ry="6.3" transform="translate(27 84.6) rotate(-72)"/></g><g id="f"><ellipse class="l" cx="90.8" cy="37.6" rx="21.9" ry="6.3" transform="translate(-4.8 60.5) rotate(-36)"/></g><g id="g"><ellipse class="l" cx="98" cy="60" rx="21.9" ry="6.3"/></g><g id="h"><ellipse class="l" cx="90.8" cy="82.3" rx="6.3" ry="21.9" transform="translate(-29.2 107.4) rotate(-54)"/></g><g id="i"><ellipse class="l" cx="71.7" cy="96.2" rx="6.3" ry="21.9" transform="translate(-26.2 26.9) rotate(-18)"/></g><g id="j"><ellipse class="l" cx="48.2" cy="96.2" rx="21.9" ry="6.3" transform="translate(-58.2 112.3) rotate(-72)"/></g><g id="k"><ellipse class="l" cx="29.2" cy="82.3" rx="21.9" ry="6.3" transform="translate(-42.8 32.9) rotate(-36)"/></g></svg>