<?xml version="1.0" encoding="UTF-8"?><svg id="a" xmlns="http://www.w3.org/2000/svg" viewBox="0 0 651.8 91.9"><defs><style>.b{fill:#000;stroke-width:0px;}</style></defs><path class="b" d="M117.6,5l-38.3,83.8h-19.8l-5.2-59.6-26.9,59.6H7.8C7.8,88.9,0,5,0,5h18l3.4,65L49.8,5h18.7l4.6,64.7L99.5,5h18.1Z"/><path class="b" d="M170.6,28.3c5,4.7,7.4,11,7.4,18.9s-.2,4.8-.6,6.8c-.5,2.4-1,4.5-1.6,6.2h-48.6c0,.6-.1,1.4-.1,2.4,0,4.2,1.2,7.4,3.7,9.8,2.4,2.4,5.7,3.5,9.7,3.5s6.3-.7,8.7-2.2c2.4-1.5,4.4-3.4,5.9-5.8h18.1c-3,6.4-7.5,11.7-13.7,15.8-6.2,4.1-13.2,6.2-21.1,6.2s-15.3-2.4-20.4-7.2c-5.1-4.8-7.7-11.3-7.7-19.6s.2-4.9.7-7.6c1.2-6.9,3.7-12.9,7.4-18.1,3.7-5.2,8.3-9.2,13.9-12,5.5-2.8,11.6-4.2,18.1-4.2s15.2,2.3,20.2,7ZM161,47.3c0-3.8-1.2-6.8-3.7-9-2.5-2.2-5.7-3.2-9.7-3.2s-8,1.3-11.4,4c-3.4,2.7-5.7,6.3-7.1,11h31.7c.2-1.3.2-2.2.2-2.8Z"/><path class="b" d="M220.7,24.2c4.2-2,8.7-3,13.6-3s9.3,1.1,13.1,3.2c3.8,2.1,6.7,5.2,8.8,9.2,2.1,4,3.1,8.7,3.1,14s-.2,5-.7,7.7c-1.2,6.8-3.6,12.8-7.2,18.1-3.6,5.2-8,9.3-13.1,12.2-5.1,2.9-10.5,4.3-16.1,4.3s-9.2-1-12.6-2.9c-3.4-2-6-4.5-7.6-7.6l-1.7,9.5h-16.9L199.2,0h16.9l-5.6,32c2.6-3.2,6-5.8,10.2-7.8ZM241.8,51c0-4.7-1.4-8.4-4.1-11-2.7-2.6-6.2-4-10.4-4s-6,.8-9,2.3c-3,1.6-5.5,3.8-7.7,6.8-2.2,3-3.6,6.4-4.3,10.4-.3,2.1-.5,3.6-.5,4.6,0,4.7,1.4,8.4,4.1,11,2.8,2.6,6.2,4,10.4,4s6.2-.8,9.1-2.4c3-1.6,5.5-3.9,7.7-6.8,2.2-3,3.6-6.5,4.3-10.6.2-1.6.4-3,.4-4.3Z"/><path class="b" d="M333.2,8.1l-2.4,13.2h-34.8l-3.8,22h26.6l-2.3,13h-26.8l-6.2,35.6h-16.9l14.9-83.8h51.7Z"/><path class="b" d="M404,24.3l-11.8,66.5h-16.8l1.4-8.4c-2.6,2.9-5.7,5.1-9.5,6.8-3.8,1.6-7.7,2.5-11.9,2.5-6.9,0-12.3-1.9-16.3-5.6-4-3.7-6-9-6-15.9s.2-4.8.6-6.8l6.8-39h16.8l-6.5,36.6c-.2,1.4-.4,2.8-.4,4.2,0,3.9,1.1,6.9,3.2,9.1,2.2,2.1,5.2,3.2,9.1,3.2s8.4-1.4,11.6-4.3c3.2-2.8,5.2-6.9,6.1-12.2l6.5-36.6h16.8Z"/><path class="b" d="M432.1,70.3c0,.5-.1,1.1-.1,1.9,0,1.6.5,2.7,1.4,3.4.9.7,2.5,1,4.6,1h7.9l-2.5,14.2h-10.7c-12,0-18-5-18-15s.2-3.8.5-5.6l5.6-32h-7.9l2.4-13.8h8l2.9-16.4h16.9l-2.9,16.4h14.8l-2.4,13.8h-14.9l-5.6,32.2Z"/><path class="b" d="M529.9,24.3l-11.8,66.5h-16.8l1.4-8.4c-2.6,2.9-5.7,5.1-9.5,6.8-3.8,1.6-7.7,2.5-11.9,2.5-6.9,0-12.3-1.9-16.3-5.6-4-3.7-6-9-6-15.9s.2-4.8.6-6.8l6.8-39h16.8l-6.5,36.6c-.2,1.4-.4,2.8-.4,4.2,0,3.9,1.1,6.9,3.2,9.1,2.2,2.1,5.2,3.2,9.1,3.2s8.4-1.4,11.6-4.3c3.2-2.8,5.2-6.9,6.1-12.2l6.5-36.6h16.8Z"/><path class="b" d="M571.4,26.7c3.8-2.2,8-3.4,12.5-3.4l-3.1,17.6h-4.4c-5,0-8.9,1.1-11.9,3.2s-5.2,5.8-6.5,11l-6.2,35.5h-16.9l11.8-66.5h16.9l-2,11.8c2.9-4,6.2-7.1,10.1-9.4Z"/><path class="b" d="M644.4,30.3c5,4.7,7.4,11,7.4,18.9s-.2,4.8-.6,6.8c-.5,2.4-1,4.5-1.6,6.2h-48.6c0,.6-.1,1.4-.1,2.4,0,4.2,1.2,7.4,3.7,9.8,2.4,2.4,5.7,3.5,9.7,3.5s6.3-.7,8.7-2.2c2.4-1.5,4.4-3.4,5.9-5.8h18.1c-3,6.4-7.5,11.7-13.7,15.8-6.2,4.1-13.2,6.2-21.1,6.2s-15.3-2.4-20.4-7.2c-5.1-4.8-7.7-11.3-7.7-19.6s.2-4.9.7-7.6c1.2-6.9,3.7-12.9,7.4-18.1,3.7-5.2,8.3-9.2,13.9-12,5.5-2.8,11.6-4.2,18.1-4.2s15.2,2.3,20.2,7ZM634.8,49.3c0-3.8-1.2-6.8-3.7-9-2.5-2.2-5.7-3.2-9.7-3.2s-8,1.3-11.4,4c-3.4,2.7-5.7,6.3-7.1,11h31.7c.2-1.3.2-2.2.2-2.8Z"/></svg>